<?xml version="1.0" standalone="no"?>
<!DOCTYPE svg PUBLIC "-//W3C//DTD SVG 20010904//EN"
 "http://www.w3.org/TR/2001/REC-SVG-20010904/DTD/svg10.dtd">
<svg version="1.0" xmlns="http://www.w3.org/2000/svg"
 width="240.000000pt" height="210.000000pt" viewBox="0 0 240.000000 210.000000"
 preserveAspectRatio="xMidYMid meet">

<g transform="translate(0.000000,210.000000) scale(0.100000,-0.100000)"
fill="#fffd00" stroke="#fffd00">
<path d="M551 2031 c-95 -7 -54 -35 -202 -293 -77 -135 -154 -270 -172 -300
-17 -30 -26 -50 -19 -43 6 6 17 9 24 6 10 -3 12 2 8 18 -5 18 -3 21 10 16 11
-4 17 -1 17 8 0 8 4 15 10 15 10 0 3 -27 -14 -49 -9 -12 -7 -13 7 -8 21 8 60
-9 52 -23 -3 -4 22 -21 55 -37 33 -15 60 -31 60 -35 0 -4 -7 -5 -15 -2 -10 4
-15 0 -15 -13 0 -39 14 -32 48 25 19 31 39 60 46 64 6 4 210 8 454 8 494 0
458 5 498 -72 9 -18 87 -152 172 -298 86 -146 173 -295 194 -331 43 -75 46
-91 18 -136 -11 -18 -15 -33 -10 -33 6 0 10 5 10 12 0 18 21 -6 24 -28 2 -10
9 -20 16 -22 8 -3 10 0 5 8 -5 9 -4 11 3 6 7 -4 12 -12 12 -18 0 -16 32 -37
58 -38 12 0 22 -5 22 -11 0 -8 5 -7 16 2 14 11 18 10 30 -6 8 -10 14 -24 13
-29 0 -6 -5 -1 -11 11 -6 13 -14 23 -18 23 -10 0 -22 -31 -15 -38 3 -3 5 1 5
8 0 9 5 8 19 -4 19 -17 20 -17 37 16 10 18 17 40 15 48 -2 8 1 12 5 7 11 -11
291 464 300 510 3 18 -3 44 -18 73 -65 124 -544 938 -565 960 l-23 25 -573 1
c-314 1 -582 0 -593 -3z m1286 -1474 c0 -6 -4 -7 -10 -4 -5 3 -10 11 -10 16 0
6 5 7 10 4 6 -3 10 -11 10 -16z"/>
<path d="M500 5409 c-9 -16 -14 -29 -9 -29 8 0 34 50 29 56 -2 1 -11 -11 -20
-27z"/>
<path d="M59 1309 c-13 -11 -18 -17 -10 -14 10 6 11 2 6 -14 -10 -33 5 -25
16 9 6 17 16 30 21 30 6 0 5 -6 -2 -15 -10 -12 -10 -15 0 -15 10 0 10 -3 0
-15 -7 -9 -10 -19 -6 -22 4 -4 11 -2 15 6 6 10 15 7 36 -13 19 -18 35 -24 50
-20 21 5 43 -11 43 -31 0 -5 6 -11 13 -14 7 -2 9 2 5 10 -4 8 1 4 10 -8 17
-24 41 -32 28 -10 -4 6 4 2 17 -10 13 -11 33 -23 44 -25 11 -2 20 -9 20 -15 0
-7 20 -23 45 -36 25 -13 63 -34 84 -47 22 -13 36 -19 32 -12 -11 18 1 15 34
-10 16 -11 26 -26 23 -31 -4 -6 0 -8 10 -4 11 4 17 1 17 -7 0 -14 31 -46 45
-46 5 0 -2 12 -16 27 -17 20 -18 23 -3 10 11 -9 23 -17 27 -17 3 0 18 -11 33
-25 15 -14 32 -24 38 -22 17 7 51 -9 51 -23 0 -7 6 -15 14 -18 9 -3 11 0 6 8
-5 9 -4 11 3 6 7 -4 12 -13 12 -20 0 -16 36 -34 75 -38 17 -2 30 -9 30 -15 0
-19 102 -66 131 -60 21 4 26 0 31 -24 3 -16 10 -32 16 -36 6 -4 7 -1 2 7 -6
10 -4 12 10 7 9 -4 23 -3 29 2 7 6 17 1 28 -14 17 -22 17 -24 -2 -48 -11 -14
-20 -31 -20 -39 0 -8 -6 -20 -12 -28 -11 -12 -10 -12 5 -1 9 7 17 18 17 23 0
6 10 24 22 40 l21 31 -25 46 c-14 25 -82 145 -152 266 -70 121 -139 240 -153
265 -14 25 -35 55 -46 68 l-20 22 -363 0 c-352 0 -362 -1 -385 -21z m1055
-554 c4 -13 2 -14 -14 -5 -23 13 -26 20 -6 20 8 0 16 -7 20 -15z"/>
<path d="M406 1273 c-6 -14 -5 -15 5 -6 7 7 10 15 7 18 -3 3 -9 -2 -12 -12z"/>
<path d="M565 1270 c-3 -5 -1 -10 4 -10 6 0 11 5 11 10 0 6 -2 10 -4 10 -3 0
-8 -4 -11 -10z"/>
<path d="M545 1240 c-3 -5 -1 -10 4 -10 6 0 11 5 11 10 0 6 -2 10 -4 10 -3 0
-8 -4 -11 -10z"/>
<path d="M1689 690 c-1 -3 -3 -18 -5 -34 l-3 -29 16 22 c11 17 12 26 4 34 -6
6 -12 9 -12 7z"/>
<path d="M1812 530 c-18 -29 -15 -33 8 -10 21 21 25 30 12 30 -4 0 -13 -9 -20
-20z"/>
<path d="M2010 424 c-11 -12 -11 -15 1 -12 8 2 13 -3 12 -9 -4 -19 5 -16 17 7
9 16 8 19 -6 13 -12 -4 -15 -3 -10 5 10 17 1 15 -14 -4z"/>
</g>
</svg>
