<?xml version="1.0" standalone="no"?>
<!DOCTYPE svg PUBLIC "-//W3C//DTD SVG 20010904//EN"
 "http://www.w3.org/TR/2001/REC-SVG-20010904/DTD/svg10.dtd">
<svg version="1.0" xmlns="http://www.w3.org/2000/svg"
 width="200.000000pt" height="200.000000pt" viewBox="0 0 200.000000 200.000000"
 preserveAspectRatio="xMidYMid meet">

<g transform="translate(0.000000,200.000000) scale(0.100000,-0.100000)"
fill="#000000" stroke="none">
<path d="M835 1665 c-114 -29 -222 -92 -310 -180 -139 -139 -195 -264 -203
-453 -5 -134 11 -219 64 -328 90 -184 261 -321 461 -369 111 -27 272 -17 379
22 200 75 342 216 416 415 26 70 32 101 36 198 4 98 1 128 -17 195 -65 235
-223 402 -458 487 -78 27 -281 34 -368 13z m356 -85 c186 -63 330 -208 395
-400 27 -78 27 -282 0 -360 -50 -148 -168 -292 -293 -358 -364 -192 -804 15
-889 418 -67 318 144 642 467 715 87 20 237 13 320 -15z"/>
<path d="M872 1453 c-5 -10 -8 -55 -5 -100 l4 -83 -103 0 c-68 0 -108 -4 -116
-12 -18 -18 -17 -501 1 -516 7 -6 58 -13 113 -14 l99 -3 5 -95 c4 -81 8 -95
23 -98 37 -7 47 16 47 110 l0 89 63 -3 62 -3 5 -95 c5 -88 7 -95 27 -98 33 -5
45 28 41 116 l-3 77 100 3 c54 1 105 8 112 14 19 16 18 271 -1 287 -9 8 -82
11 -242 9 l-229 -3 0 -30 0 -30 208 -3 207 -2 0 -85 0 -85 -290 0 -290 0 0
200 0 200 314 0 c274 0 315 2 327 16 9 11 10 20 2 32 -8 14 -30 18 -112 20
l-101 3 -1 62 c-1 34 -1 70 0 79 3 27 -18 58 -40 58 -26 0 -31 -15 -33 -112
l-1 -83 -62 -3 -63 -3 0 89 c0 55 -4 92 -12 100 -17 17 -46 15 -56 -5z"/>
</g>
</svg>
