<?xml version="1.0" standalone="no"?>
<!DOCTYPE svg PUBLIC "-//W3C//DTD SVG 20010904//EN"
 "http://www.w3.org/TR/2001/REC-SVG-20010904/DTD/svg10.dtd">
<svg version="1.0" xmlns="http://www.w3.org/2000/svg"
 width="225.000000pt" height="225.000000pt" viewBox="0 0 225.000000 225.000000"
 preserveAspectRatio="xMidYMid meet">

<g transform="translate(0.000000,225.000000) scale(0.100000,-0.100000)"
fill="#000000" stroke="none">
<path d="M988 2240 c-376 -48 -709 -286 -873 -625 -78 -163 -107 -292 -108
-485 -2 -321 100 -568 327 -796 168 -167 334 -258 569 -311 98 -22 346 -22
444 0 240 54 429 161 593 333 147 154 237 327 287 547 22 98 22 346 0 444 -53
235 -144 401 -311 569 -171 170 -337 260 -569 310 -86 18 -271 25 -359 14z
m138 -362 c18 -23 18 -23 -1 -6 -18 17 -20 17 -45 -5 l-25 -22 24 28 c14 15
25 27 26 27 1 0 10 -10 21 -22z m69 -58 c10 -11 16 -20 13 -20 -3 0 -13 9 -23
20 -10 11 -16 20 -13 20 3 0 13 -9 23 -20z m-165 -13 c0 -2 -17 -19 -37 -38
l-38 -34 34 38 c33 34 41 42 41 34z m160 -40 c0 -2 -19 -21 -42 -42 l-43 -40
40 43 c36 39 45 47 45 39z m-260 -70 c0 -2 -19 -21 -42 -42 l-43 -40 40 43
c36 39 45 47 45 39z m445 -47 c3 -6 -1 -7 -9 -4 -18 7 -21 14 -7 14 6 0 13 -4
16 -10z m-295 -3 c0 -2 -19 -21 -42 -42 l-43 -40 40 43 c36 39 45 47 45 39z
m240 -40 c0 -2 -19 -21 -42 -42 l-43 -40 40 43 c36 39 45 47 45 39z m-392 -52
l52 -17 -92 -104 c-143 -164 -161 -175 -247 -154 -81 19 -100 10 -208 -105
l-98 -103 -58 53 -58 52 52 57 c72 79 96 90 180 82 48 -5 77 -3 101 7 19 8 85
70 156 145 117 124 125 131 145 118 12 -8 46 -21 75 -31z m527 -13 c-17 -15
-18 -15 -6 0 7 9 9 23 5 30 -6 10 -4 11 7 0 11 -10 10 -15 -6 -30z m-255 -67
c-14 -17 -19 -13 70 -44 l55 -19 44 42 c25 22 -18 -28 -94 -113 -77 -84 -150
-158 -163 -164 -16 -7 -42 -8 -85 0 -101 16 -109 12 -279 -172 -84 -91 -155
-165 -158 -165 -3 1 -30 22 -60 49 l-54 49 69 78 c39 43 95 105 127 139 l56
60 86 -3 c56 -1 98 3 119 11 18 8 85 70 151 141 66 69 121 126 124 126 2 0 -1
-7 -8 -15z m479 -99 c39 -40 49 -56 39 -61 -7 -5 -10 -4 -5 0 4 5 -16 33 -45
62 -29 29 -50 53 -47 53 2 0 29 -24 58 -54z m-99 -1 c-20 -21 -30 -38 -24 -43
14 -13 124 -52 124 -45 0 3 3 3 6 0 8 -8 -159 -196 -192 -216 -19 -13 -33 -13
-88 -2 -35 7 -78 10 -95 6 -22 -5 -83 -64 -247 -241 l-216 -234 -48 40 c-26
22 -52 45 -58 52 -8 10 27 54 144 183 229 253 205 235 319 235 63 0 105 5 123
14 15 8 83 75 151 150 68 75 127 136 130 136 3 0 -10 -16 -29 -35z m355 -235
l49 -49 -51 -58 c-62 -71 -85 -81 -156 -63 -101 24 -90 33 -452 -365 -115
-126 -214 -231 -220 -233 -5 -1 -33 21 -62 50 l-51 53 236 253 c131 140 245
258 255 263 9 6 54 11 100 13 102 4 121 14 217 110 41 42 77 76 80 76 3 0 28
-22 55 -50z"/>
</g>
</svg>
